<mxfile host="Electron" modified="2023-04-18T21:50:44.947Z" agent="Mozilla/5.0 (X11; Linux x86_64) AppleWebKit/537.36 (KHTML, like Gecko) draw.io/21.1.2 Chrome/106.0.5249.199 Electron/21.4.3 Safari/537.36" etag="PC6N53XKz-VlwY38wqpt" version="21.1.2" type="device">
  <diagram name="Page-1" id="qnGBJLDrAXgkiVqOYT2j">
    <mxGraphModel dx="1050" dy="662" grid="1" gridSize="10" guides="1" tooltips="1" connect="1" arrows="1" fold="1" page="1" pageScale="1" pageWidth="827" pageHeight="1169" math="0" shadow="0">
      <root>
        <mxCell id="0" />
        <mxCell id="1" parent="0" />
        <mxCell id="P9kqAtKWv7dl2LpdaUSC-3" style="edgeStyle=orthogonalEdgeStyle;rounded=0;orthogonalLoop=1;jettySize=auto;html=1;exitX=1;exitY=0.5;exitDx=0;exitDy=0;entryX=0;entryY=0.5;entryDx=0;entryDy=0;" parent="1" source="P9kqAtKWv7dl2LpdaUSC-1" target="P9kqAtKWv7dl2LpdaUSC-2" edge="1">
          <mxGeometry relative="1" as="geometry" />
        </mxCell>
        <mxCell id="P9kqAtKWv7dl2LpdaUSC-1" value="Node feature matrix" style="whiteSpace=wrap;html=1;fontSize=14;" parent="1" vertex="1">
          <mxGeometry x="180" y="140" width="150" height="50" as="geometry" />
        </mxCell>
        <mxCell id="P9kqAtKWv7dl2LpdaUSC-2" value="data.x = [num_nodes, num_node_features]" style="whiteSpace=wrap;html=1;fontSize=14;" parent="1" vertex="1">
          <mxGeometry x="380" y="140" width="300" height="50" as="geometry" />
        </mxCell>
        <mxCell id="P9kqAtKWv7dl2LpdaUSC-6" style="edgeStyle=orthogonalEdgeStyle;rounded=0;orthogonalLoop=1;jettySize=auto;html=1;exitX=1;exitY=0.5;exitDx=0;exitDy=0;entryX=0;entryY=0.5;entryDx=0;entryDy=0;" parent="1" source="P9kqAtKWv7dl2LpdaUSC-4" target="P9kqAtKWv7dl2LpdaUSC-5" edge="1">
          <mxGeometry relative="1" as="geometry" />
        </mxCell>
        <mxCell id="P9kqAtKWv7dl2LpdaUSC-4" value="Edge connectivity matrix" style="whiteSpace=wrap;html=1;fontSize=14;" parent="1" vertex="1">
          <mxGeometry x="180" y="210" width="150" height="50" as="geometry" />
        </mxCell>
        <mxCell id="P9kqAtKWv7dl2LpdaUSC-5" value="data.edge_index = [2, num_edges]" style="whiteSpace=wrap;html=1;fontSize=14;" parent="1" vertex="1">
          <mxGeometry x="380" y="210" width="300" height="50" as="geometry" />
        </mxCell>
        <mxCell id="P9kqAtKWv7dl2LpdaUSC-9" style="edgeStyle=orthogonalEdgeStyle;rounded=0;orthogonalLoop=1;jettySize=auto;html=1;exitX=1;exitY=0.5;exitDx=0;exitDy=0;entryX=0;entryY=0.5;entryDx=0;entryDy=0;" parent="1" source="P9kqAtKWv7dl2LpdaUSC-7" target="P9kqAtKWv7dl2LpdaUSC-8" edge="1">
          <mxGeometry relative="1" as="geometry" />
        </mxCell>
        <mxCell id="P9kqAtKWv7dl2LpdaUSC-7" value="Edge feature matrix" style="whiteSpace=wrap;html=1;fontSize=14;" parent="1" vertex="1">
          <mxGeometry x="180" y="290" width="150" height="50" as="geometry" />
        </mxCell>
        <mxCell id="P9kqAtKWv7dl2LpdaUSC-8" value="data.edge_attr = [num_edges, num_edge_features]" style="whiteSpace=wrap;html=1;fontSize=14;" parent="1" vertex="1">
          <mxGeometry x="380" y="290" width="300" height="50" as="geometry" />
        </mxCell>
        <mxCell id="P9kqAtKWv7dl2LpdaUSC-13" style="rounded=0;orthogonalLoop=1;jettySize=auto;html=1;exitX=0;exitY=0.5;exitDx=0;exitDy=0;" parent="1" source="P9kqAtKWv7dl2LpdaUSC-10" target="P9kqAtKWv7dl2LpdaUSC-2" edge="1">
          <mxGeometry relative="1" as="geometry" />
        </mxCell>
        <mxCell id="P9kqAtKWv7dl2LpdaUSC-27" style="rounded=0;orthogonalLoop=1;jettySize=auto;html=1;exitX=0;exitY=0.5;exitDx=0;exitDy=0;entryX=1;entryY=0.5;entryDx=0;entryDy=0;" parent="1" source="P9kqAtKWv7dl2LpdaUSC-10" target="P9kqAtKWv7dl2LpdaUSC-19" edge="1">
          <mxGeometry relative="1" as="geometry" />
        </mxCell>
        <mxCell id="P9kqAtKWv7dl2LpdaUSC-29" style="rounded=0;orthogonalLoop=1;jettySize=auto;html=1;exitX=0;exitY=0.5;exitDx=0;exitDy=0;entryX=1;entryY=0.5;entryDx=0;entryDy=0;" parent="1" source="P9kqAtKWv7dl2LpdaUSC-10" target="P9kqAtKWv7dl2LpdaUSC-23" edge="1">
          <mxGeometry relative="1" as="geometry" />
        </mxCell>
        <mxCell id="P9kqAtKWv7dl2LpdaUSC-10" value="num_nodes" style="whiteSpace=wrap;html=1;" parent="1" vertex="1">
          <mxGeometry x="750" y="110" width="100" height="40" as="geometry" />
        </mxCell>
        <mxCell id="P9kqAtKWv7dl2LpdaUSC-14" style="rounded=0;orthogonalLoop=1;jettySize=auto;html=1;exitX=0;exitY=0.5;exitDx=0;exitDy=0;entryX=1;entryY=0.75;entryDx=0;entryDy=0;" parent="1" source="P9kqAtKWv7dl2LpdaUSC-11" target="P9kqAtKWv7dl2LpdaUSC-2" edge="1">
          <mxGeometry relative="1" as="geometry" />
        </mxCell>
        <mxCell id="P9kqAtKWv7dl2LpdaUSC-11" value="num_node_features" style="whiteSpace=wrap;html=1;" parent="1" vertex="1">
          <mxGeometry x="750" y="180" width="120" height="40" as="geometry" />
        </mxCell>
        <mxCell id="P9kqAtKWv7dl2LpdaUSC-17" style="rounded=0;orthogonalLoop=1;jettySize=auto;html=1;exitX=0;exitY=0.5;exitDx=0;exitDy=0;entryX=1;entryY=0.5;entryDx=0;entryDy=0;" parent="1" source="P9kqAtKWv7dl2LpdaUSC-12" target="P9kqAtKWv7dl2LpdaUSC-8" edge="1">
          <mxGeometry relative="1" as="geometry" />
        </mxCell>
        <mxCell id="P9kqAtKWv7dl2LpdaUSC-12" value="num_edge_features" style="whiteSpace=wrap;html=1;" parent="1" vertex="1">
          <mxGeometry x="750" y="330" width="120" height="40" as="geometry" />
        </mxCell>
        <mxCell id="P9kqAtKWv7dl2LpdaUSC-16" style="rounded=0;orthogonalLoop=1;jettySize=auto;html=1;exitX=0;exitY=0.5;exitDx=0;exitDy=0;entryX=1;entryY=0.5;entryDx=0;entryDy=0;" parent="1" source="P9kqAtKWv7dl2LpdaUSC-15" target="P9kqAtKWv7dl2LpdaUSC-5" edge="1">
          <mxGeometry relative="1" as="geometry" />
        </mxCell>
        <mxCell id="P9kqAtKWv7dl2LpdaUSC-18" style="rounded=0;orthogonalLoop=1;jettySize=auto;html=1;exitX=0;exitY=0.5;exitDx=0;exitDy=0;entryX=1;entryY=0.5;entryDx=0;entryDy=0;" parent="1" source="P9kqAtKWv7dl2LpdaUSC-15" target="P9kqAtKWv7dl2LpdaUSC-8" edge="1">
          <mxGeometry relative="1" as="geometry" />
        </mxCell>
        <mxCell id="P9kqAtKWv7dl2LpdaUSC-15" value="num_edges" style="whiteSpace=wrap;html=1;" parent="1" vertex="1">
          <mxGeometry x="750" y="250" width="120" height="40" as="geometry" />
        </mxCell>
        <mxCell id="P9kqAtKWv7dl2LpdaUSC-19" value="data.y = [num_nodes, num_class] (node-level classificatiion)" style="whiteSpace=wrap;html=1;fontSize=14;" parent="1" vertex="1">
          <mxGeometry x="380" y="380" width="300" height="50" as="geometry" />
        </mxCell>
        <mxCell id="P9kqAtKWv7dl2LpdaUSC-21" style="edgeStyle=orthogonalEdgeStyle;rounded=0;orthogonalLoop=1;jettySize=auto;html=1;exitX=1;exitY=0.5;exitDx=0;exitDy=0;entryX=0;entryY=0.5;entryDx=0;entryDy=0;" parent="1" source="P9kqAtKWv7dl2LpdaUSC-20" target="P9kqAtKWv7dl2LpdaUSC-19" edge="1">
          <mxGeometry relative="1" as="geometry" />
        </mxCell>
        <mxCell id="P9kqAtKWv7dl2LpdaUSC-20" value="Target to train against" style="whiteSpace=wrap;html=1;fontSize=14;" parent="1" vertex="1">
          <mxGeometry x="180" y="380" width="150" height="50" as="geometry" />
        </mxCell>
        <mxCell id="P9kqAtKWv7dl2LpdaUSC-24" style="edgeStyle=orthogonalEdgeStyle;rounded=0;orthogonalLoop=1;jettySize=auto;html=1;exitX=1;exitY=0.5;exitDx=0;exitDy=0;entryX=0;entryY=0.5;entryDx=0;entryDy=0;" parent="1" source="P9kqAtKWv7dl2LpdaUSC-22" target="P9kqAtKWv7dl2LpdaUSC-23" edge="1">
          <mxGeometry relative="1" as="geometry" />
        </mxCell>
        <mxCell id="P9kqAtKWv7dl2LpdaUSC-22" value="Node position matrix" style="whiteSpace=wrap;html=1;fontSize=14;" parent="1" vertex="1">
          <mxGeometry x="180" y="460" width="150" height="50" as="geometry" />
        </mxCell>
        <mxCell id="P9kqAtKWv7dl2LpdaUSC-23" value="data.pos = [num_nodes, num_dimensions]" style="whiteSpace=wrap;html=1;fontSize=14;" parent="1" vertex="1">
          <mxGeometry x="380" y="460" width="300" height="50" as="geometry" />
        </mxCell>
        <mxCell id="P9kqAtKWv7dl2LpdaUSC-28" style="rounded=0;orthogonalLoop=1;jettySize=auto;html=1;exitX=0;exitY=0.5;exitDx=0;exitDy=0;" parent="1" source="P9kqAtKWv7dl2LpdaUSC-25" edge="1">
          <mxGeometry relative="1" as="geometry">
            <mxPoint x="680" y="399.9999999999999" as="targetPoint" />
          </mxGeometry>
        </mxCell>
        <mxCell id="P9kqAtKWv7dl2LpdaUSC-25" value="num_class" style="whiteSpace=wrap;html=1;" parent="1" vertex="1">
          <mxGeometry x="750" y="390" width="120" height="40" as="geometry" />
        </mxCell>
        <mxCell id="P9kqAtKWv7dl2LpdaUSC-30" style="rounded=0;orthogonalLoop=1;jettySize=auto;html=1;exitX=0;exitY=0.5;exitDx=0;exitDy=0;" parent="1" source="P9kqAtKWv7dl2LpdaUSC-26" target="P9kqAtKWv7dl2LpdaUSC-23" edge="1">
          <mxGeometry relative="1" as="geometry" />
        </mxCell>
        <mxCell id="P9kqAtKWv7dl2LpdaUSC-26" value="num_dimensions" style="whiteSpace=wrap;html=1;" parent="1" vertex="1">
          <mxGeometry x="750" y="460" width="120" height="40" as="geometry" />
        </mxCell>
      </root>
    </mxGraphModel>
  </diagram>
</mxfile>
